<svg width="100%" viewBox="0 0 196 34" fill="none" xmlns="http://www.w3.org/2000/svg">
                  <path d="M14.1525 30.8939C14.1525 31.6834 14.0739 32.4547 13.9257 33.2018C12.005 32.9416 10.1993 31.7529 9.3221 29.6356L9.24648 29.4542C8.21506 26.9648 6.23994 24.9867 3.74759 23.9553L3.56006 23.8766C1.45185 23.0055 0.263148 21.1998 0 19.2821C0.747099 19.1339 1.52142 19.0553 2.31389 19.0553C8.85327 19.0553 14.1525 24.3545 14.1525 30.8939ZM14.1525 6.03398C14.1525 5.24453 14.0739 4.47021 13.9257 3.72311C12.005 3.98324 10.1993 5.17194 9.32512 7.28923L9.24951 7.47373C8.22111 9.96305 6.24296 11.9382 3.75667 12.9696L3.56611 13.0482C1.44883 13.9224 0.263148 15.7251 0 17.6427C0.747099 17.791 1.52142 17.8696 2.31389 17.8696C8.85327 17.8696 14.1525 12.5703 14.1525 6.03095V6.03398ZM20.1596 29.6356L20.2352 29.4542C21.2666 26.9648 23.2448 24.9867 25.7341 23.9553L25.9186 23.8797C28.0328 23.0055 29.2215 21.1998 29.4847 19.2791C28.7376 19.1309 27.9633 19.0523 27.1708 19.0523C20.6314 19.0523 15.3322 24.3515 15.3322 30.8909C15.3322 31.6803 15.4108 32.4516 15.559 33.1987C17.4797 32.9386 19.2854 31.7499 20.1596 29.6326V29.6356ZM27.1708 17.8726C27.9633 17.8726 28.7346 17.794 29.4847 17.6458C29.2215 15.7281 28.0359 13.9224 25.9186 13.0482L25.7311 12.9696C23.2417 11.9382 21.2666 9.96305 20.2352 7.47373L20.1596 7.28923C19.2854 5.17194 17.4797 3.98626 15.559 3.72311C15.4108 4.47021 15.3322 5.24151 15.3322 6.03398C15.3322 12.5734 20.6314 17.8726 27.1708 17.8726Z" class="nav_logo-icon" fill="#00A972"></path>
                  <path d="M40.1168 27.2371C38.6135 26.3659 37.4611 25.1561 36.6626 23.6044C35.8611 22.0527 35.4648 20.2984 35.4648 18.3414C35.4648 16.3845 35.8883 14.5817 36.7352 13.0785C37.5821 11.5752 38.7527 10.4167 40.2439 9.60613C41.735 8.79551 43.4349 8.38718 45.3465 8.38718C47.1129 8.38718 48.6767 8.72292 50.0378 9.38835C51.3989 10.0568 52.4727 10.9945 53.2591 12.1983C53.9699 13.2842 54.3873 14.5122 54.5174 15.8793C54.5416 16.1243 54.3389 16.333 54.0939 16.333H50.2647C50.0045 16.333 49.7656 16.1606 49.7081 15.9066C49.4903 14.9356 49.0276 14.1401 48.3168 13.5231C47.5061 12.8184 46.5019 12.4675 45.3102 12.4675C43.8311 12.4675 42.6364 12.9998 41.729 14.0615C40.8216 15.1232 40.3679 16.5508 40.3679 18.3414C40.3679 20.1321 40.8337 21.6837 41.7653 22.7817C42.6969 23.8797 43.9128 24.4271 45.4161 24.4271C46.5866 24.4271 47.5576 24.0763 48.3349 23.3715C49.0124 22.7545 49.4692 21.9438 49.699 20.9336C49.7565 20.6765 49.9743 20.489 50.2374 20.489H54.0697C54.3238 20.489 54.5234 20.7128 54.4902 20.9638C54.1816 23.2021 53.2561 25.0018 51.7165 26.3629C50.0681 27.8178 47.9689 28.5467 45.4161 28.5467C43.3865 28.5467 41.6201 28.1112 40.1168 27.2401V27.2371ZM60.8208 27.9721H56.7919C56.559 27.9721 56.3715 27.7845 56.3715 27.5516V1.53928C56.3715 1.30638 56.559 1.11885 56.7919 1.11885H60.8208C61.0537 1.11885 61.2413 1.30638 61.2413 1.53928V27.5516C61.2413 27.7845 61.0537 27.9721 60.8208 27.9721ZM67.7292 27.2371C66.2381 26.3659 65.0917 25.1591 64.2932 23.6195C63.4916 22.08 63.0954 20.3196 63.0954 18.3384C63.0954 16.3572 63.5189 14.5787 64.3658 13.0755C65.2127 11.5722 66.3893 10.4137 67.8926 9.60311C69.3958 8.79249 71.1018 8.38416 73.0134 8.38416C75.0187 8.38416 76.7731 8.81366 78.2763 9.67268C79.7796 10.5317 80.932 11.7143 81.7305 13.2176C82.529 14.7209 82.9313 16.4268 82.9313 18.3384C82.9313 20.3922 82.5139 22.1949 81.6791 23.7435C80.8443 25.2952 79.6737 26.4839 78.1705 27.3066C76.6672 28.1293 74.9492 28.5407 73.0164 28.5407C70.9868 28.5407 69.2265 28.1051 67.7353 27.234L67.7292 27.2371ZM76.6611 22.7454C77.5686 21.6232 78.0223 20.1563 78.0223 18.3414C78.0223 16.5266 77.5686 15.1534 76.6611 14.0797C75.7537 13.0059 74.5378 12.4675 73.0103 12.4675C71.4829 12.4675 70.2639 13.0029 69.3595 14.0797C68.4521 15.1534 67.9984 16.575 67.9984 18.3414C67.9984 20.2258 68.4582 21.714 69.3777 22.7998C70.2972 23.8857 71.5071 24.4301 73.0103 24.4301C74.5136 24.4301 75.7537 23.8706 76.6611 22.7484V22.7454ZM89.1864 27.1403C87.6831 26.2692 86.5307 25.0593 85.7322 23.5076C84.9307 21.9559 84.5344 20.2016 84.5344 18.2447C84.5344 16.2877 84.9579 14.485 85.8048 12.9817C86.6517 11.4784 87.8223 10.32 89.3134 9.50934C90.8046 8.69872 92.5045 8.29039 94.4161 8.29039C96.1825 8.29039 97.7463 8.62613 99.1074 9.29156C100.468 9.96002 101.542 10.8977 102.329 12.1015C103.039 13.1874 103.457 14.4154 103.587 15.7826C103.611 16.0276 103.408 16.2363 103.163 16.2363H99.3342C99.0741 16.2363 98.8352 16.0638 98.7777 15.8098C98.5599 14.8388 98.0971 14.0434 97.3863 13.4263C96.5757 12.7216 95.5715 12.3707 94.3798 12.3707C92.9007 12.3707 91.706 12.903 90.7986 13.9647C89.8911 15.0264 89.4374 16.454 89.4374 18.2447C89.4374 20.0353 89.9032 21.5869 90.8348 22.6849C91.7665 23.7829 92.9824 24.3303 94.4857 24.3303C95.6562 24.3303 96.6271 23.9795 97.4045 23.2747C98.082 22.6577 98.5387 21.8471 98.7686 20.8368C98.8261 20.5797 99.0439 20.3922 99.307 20.3922H103.139C103.393 20.3922 103.593 20.616 103.56 20.8671C103.251 23.1053 102.326 24.905 100.786 26.2661C99.1376 27.721 97.0385 28.45 94.4857 28.45C92.4561 28.45 90.6897 28.0144 89.1864 27.1433V27.1403ZM152.992 5.90088C152.408 5.31712 152.115 4.59422 152.115 3.73521C152.115 2.87619 152.405 2.20169 152.992 1.64212C153.576 1.08255 154.287 0.801254 155.122 0.801254C155.956 0.801254 156.661 1.08255 157.233 1.64212C157.805 2.20169 158.092 2.90039 158.092 3.73521C158.092 4.57002 157.805 5.31712 157.233 5.90088C156.661 6.48465 155.956 6.77805 155.122 6.77805C154.287 6.77805 153.576 6.48767 152.992 5.90088ZM157.136 27.9721H153.071C152.838 27.9721 152.65 27.7845 152.65 27.5516V9.4186C152.65 9.1857 152.838 8.99817 153.071 8.99817H157.136C157.369 8.99817 157.557 9.1857 157.557 9.4186V27.5516C157.557 27.7845 157.369 27.9721 157.136 27.9721ZM161.945 26.8257C160.572 25.764 159.786 24.2698 159.583 22.3431C159.559 22.0981 159.758 21.8864 160.003 21.8864H163.83C164.026 21.8864 164.208 22.0225 164.241 22.2161C164.368 22.9601 164.719 23.5379 165.294 23.9432C165.95 24.409 166.827 24.6419 167.925 24.6419C168.857 24.6419 169.574 24.4695 170.073 24.1247C170.575 23.7798 170.826 23.2959 170.826 22.6758C170.826 22.2705 170.723 21.9529 170.52 21.7261C170.318 21.4992 170.085 21.3329 169.822 21.224C169.559 21.1181 169.035 20.9306 168.246 20.6674L165.847 19.881C164.559 19.4757 163.491 19.0522 162.644 18.6106C161.797 18.169 161.117 17.5853 160.602 16.8563C160.088 16.1274 159.834 15.2139 159.834 14.1159C159.834 12.3737 160.478 10.9824 161.767 9.9449C163.055 8.90743 164.87 8.38718 167.208 8.38718C169.546 8.38718 171.355 8.9649 172.777 10.1234C174.089 11.1941 174.897 12.6883 175.2 14.6029C175.239 14.854 175.036 15.0808 174.782 15.0808H171.116C170.908 15.0808 170.741 14.9266 170.702 14.7209C170.56 13.9677 170.218 13.39 169.679 12.9847C169.059 12.5189 168.234 12.286 167.208 12.286C166.374 12.286 165.729 12.4493 165.273 12.779C164.816 13.1087 164.595 13.635 164.634 14.1674C164.658 14.494 164.783 14.7663 165.006 14.9901C165.257 15.2411 165.527 15.4256 165.811 15.5466C166.098 15.6646 166.597 15.8461 167.314 16.085L169.498 16.8382C170.977 17.3161 172.148 17.7879 173.007 18.2537C173.866 18.7195 174.528 19.3033 174.994 20.008C175.46 20.7128 175.693 21.6263 175.693 22.7484C175.693 24.5632 175.036 25.9818 173.723 27.0102C172.411 28.0356 170.596 28.5498 168.282 28.5498C165.536 28.5498 163.424 27.9781 161.945 26.8317V26.8257ZM181.911 27.2734C180.396 26.4264 179.219 25.2438 178.385 23.7284C177.55 22.213 177.132 20.489 177.132 18.5562C177.132 16.6234 177.544 14.7784 178.366 13.2388C179.189 11.6992 180.329 10.5045 181.784 9.65755C183.239 8.81064 184.888 8.38718 186.724 8.38718C188.56 8.38718 190.135 8.79249 191.521 9.60613C192.906 10.4167 193.992 11.5813 194.778 13.0966C195.568 14.612 195.973 16.3845 195.997 18.414V19.14C195.997 19.3729 195.81 19.5604 195.577 19.5604H181.926C182.117 21.0425 182.68 22.2342 183.608 23.1416C184.54 24.049 185.707 24.5027 187.117 24.5027C188.118 24.5027 188.971 24.2819 189.676 23.8403C190.269 23.4683 190.725 22.9541 191.037 22.3008C191.149 22.0648 191.397 21.9257 191.657 21.9257H195.368C195.646 21.9257 195.855 22.1949 195.773 22.4611C195.211 24.3031 194.225 25.755 192.806 26.8106C191.255 27.969 189.346 28.5467 187.078 28.5467C185.145 28.5467 183.421 28.1233 181.905 27.2764L181.911 27.2734ZM190.988 16.2998C190.725 15.0808 190.223 14.1401 189.485 13.4717C188.744 12.8032 187.825 12.4705 186.73 12.4705C185.635 12.4705 184.64 12.8093 183.829 13.4898C183.018 14.1704 182.456 15.108 182.147 16.2998H190.991H190.988ZM150.781 8.99514H146.501C146.311 8.99514 146.144 9.12218 146.096 9.30669L142.708 21.8138L139.215 9.30366C139.163 9.12218 138.997 8.99514 138.809 8.99514H135.51C135.319 8.99514 135.156 9.12218 135.104 9.30366L131.608 21.9559L128.184 9.30669C128.135 9.12218 127.969 8.99514 127.778 8.99514H118.163C117.936 8.99514 117.718 9.08589 117.561 9.24922L110.326 16.6567V1.53928C110.326 1.30638 110.138 1.11885 109.906 1.11885H105.877C105.644 1.11885 105.456 1.30638 105.456 1.53928V27.5516C105.456 27.7845 105.644 27.9721 105.877 27.9721H109.906C110.138 27.9721 110.326 27.7845 110.326 27.5516V22.3159L113.478 19.2005L118.856 27.6484C118.986 27.8511 119.206 27.9721 119.448 27.9721H124.173C124.394 27.9721 124.53 27.7271 124.409 27.5395L116.917 15.834L123.278 9.50632L128.659 27.6696C128.71 27.848 128.876 27.9721 129.061 27.9721H133.441C133.628 27.9721 133.795 27.845 133.846 27.6635L137.161 15.7614L140.512 27.6635C140.564 27.845 140.73 27.969 140.918 27.969H145.225C145.412 27.969 145.576 27.845 145.627 27.6666L151.053 9.35206C151.108 9.1736 150.972 8.99212 150.784 8.99212L150.781 8.99514Z" class="nav_logo-text" fill="#003F2E"></path>
                </svg>