<?xml version="1.0" encoding="UTF-8"?>
<svg version="1.1" xmlns="http://www.w3.org/2000/svg" width="400" height="400">
<path d="M0 0 C132 0 264 0 400 0 C400 132 400 264 400 400 C268 400 136 400 0 400 C0 268 0 136 0 0 Z " fill="#E7FCF3" transform="translate(0,0)"/>
<path d="M0 0 C1.05294326 -0.00551503 1.05294326 -0.00551503 2.12715811 -0.01114148 C4.48528705 -0.02217656 6.84337193 -0.0260219 9.20152283 -0.02983093 C10.8901534 -0.03609588 12.5787826 -0.04274271 14.26741028 -0.04974365 C19.81957539 -0.07078839 25.37174079 -0.08114862 30.92393494 -0.09111023 C32.8364609 -0.09515808 34.74898671 -0.09927501 36.66151237 -0.10346031 C45.64979826 -0.12251542 54.63807592 -0.13674397 63.62637812 -0.14507228 C73.99294745 -0.15483662 84.3593028 -0.18113381 94.72579676 -0.22157317 C102.74293415 -0.25177124 110.76001035 -0.26654479 118.7772035 -0.26985329 C123.56299197 -0.2722002 128.34855193 -0.28111338 133.13427925 -0.30631447 C137.64134124 -0.32966383 142.1480254 -0.33380093 146.65513229 -0.32355309 C148.30381848 -0.32305923 149.9525237 -0.32933521 151.60115242 -0.34310913 C164.09974217 -0.44163587 174.78609342 1.05539758 184.13877869 10.14717102 C189.73921319 17.07926439 192.38221888 23.37207938 192.40620422 32.36915588 C192.41073534 33.07368133 192.41526645 33.77820678 192.41993487 34.50408149 C192.43254401 36.85295241 192.43096077 39.20159042 192.42930603 41.55049133 C192.43529353 43.239566 192.44209959 44.92863794 192.44966125 46.6177063 C192.46730755 51.19846954 192.4720161 55.77915803 192.47329283 60.35995197 C192.47471595 63.22482133 192.47898865 66.08967178 192.48428726 68.95453644 C192.50278418 78.95772505 192.51095844 88.96086041 192.50938416 98.96406555 C192.50818339 108.27421892 192.5292739 117.58414023 192.56087148 126.8942349 C192.58706538 134.89870325 192.59775012 142.90309597 192.59647334 150.90760684 C192.59596455 155.68327671 192.60160151 160.45874036 192.62282944 165.23436737 C192.64226393 169.72917558 192.64230084 174.22358198 192.62779617 178.71840477 C192.62571331 180.36224902 192.63037767 182.00611876 192.64251709 183.64991951 C192.72291046 195.29616837 191.47304624 204.92539902 183.97471619 214.32685852 C177.09910834 221.14395055 168.47128649 224.38912519 158.91679382 224.41459656 C158.21226837 224.41912767 157.50774292 224.42365878 156.78186822 224.4283272 C154.4329973 224.44093634 152.08435929 224.43935311 149.73545837 224.43769836 C148.0463837 224.44368587 146.35731177 224.45049192 144.66824341 224.45805359 C140.08748017 224.47569988 135.50679168 224.48040844 130.92599773 224.48168516 C128.06112837 224.48310828 125.19627793 224.48738098 122.33141327 224.4926796 C112.32822466 224.51117652 102.3250893 224.51935078 92.32188416 224.51777649 C83.01173079 224.51657572 73.70180948 224.53766623 64.39171481 224.56926382 C56.38724645 224.59545772 48.38285373 224.60614245 40.37834287 224.60486567 C35.602673 224.60435688 30.82720935 224.60999384 26.05158234 224.63122177 C21.55677413 224.65065626 17.06236773 224.65069318 12.56754494 224.63618851 C10.92370069 224.63410564 9.27983094 224.63877 7.6360302 224.65090942 C-4.11979521 224.73205919 -14.05521804 223.73086576 -23.03700256 215.35029602 C-28.80395688 208.38549466 -31.97806046 200.22910319 -32.00839233 191.28594971 C-32.01206902 190.58398753 -32.01574571 189.88202536 -32.01953381 189.1587916 C-32.03056889 186.80066266 -32.03441424 184.44257778 -32.03822327 182.08442688 C-32.04448821 180.39579631 -32.05113504 178.70716711 -32.05813599 177.01853943 C-32.07918073 171.46637431 -32.08954096 165.91420892 -32.09950256 160.36201477 C-32.10355041 158.44948881 -32.10766735 156.536963 -32.11185265 154.62443733 C-32.13090775 145.63615145 -32.1451363 136.64787379 -32.15346462 127.65957159 C-32.16322895 117.29300226 -32.18952614 106.92664691 -32.22996551 96.56015295 C-32.26016357 88.54301556 -32.27493712 80.52593935 -32.27824563 72.50874621 C-32.28059254 67.72295774 -32.28950571 62.93739778 -32.3147068 58.15167046 C-32.33805617 53.64460847 -32.34219327 49.1379243 -32.33194542 44.63081741 C-32.33145156 42.98213122 -32.33772755 41.33342601 -32.35150146 39.68479729 C-32.45018554 27.16624907 -31.05070205 17.55827631 -22.15419006 8.12763977 C-15.68212331 2.53762641 -8.43518508 0.02860903 0 0 Z " fill="#019765" transform="translate(119.86122131347656,87.85282897949219)"/>
<path d="M0 0 C13.86 0 27.72 0 42 0 C42 4.29 42 8.58 42 13 C33.42 13.33 24.84 13.66 16 14 C18.31 17.3 20.62 20.6 23 24 C24.50799895 26.58080357 25.92438253 29.0857014 27.25 31.75 C27.58644531 32.42466309 27.92289063 33.09932617 28.26953125 33.79443359 C32.29832257 42.24107107 34 50.61905278 34 60 C28.39 60 22.78 60 17 60 C16.91363281 58.62328125 16.82726562 57.2465625 16.73828125 55.828125 C15.54291954 39.2840182 12.09673729 26.09673729 0 14 C0 9.38 0 4.76 0 0 Z " fill="#F6FCFD" transform="translate(139,130)"/>
<path d="M0 0 C13.86 0 27.72 0 42 0 C42 4.62 42 9.24 42 14 C41.34 14 40.68 14 40 14 C39.73960937 14.55558594 39.47921875 15.11117187 39.2109375 15.68359375 C37.85266441 18.28183872 36.26437598 20.63207141 34.625 23.0625 C27.14439303 34.91327444 26.02021117 46.29426836 25 60 C19.72 60 14.44 60 9 60 C8.12300811 41.80241838 15.25604264 28.32527648 26 14 C13.13 13.505 13.13 13.505 0 13 C0 8.71 0 4.42 0 0 Z " fill="#F0FBFA" transform="translate(219,130)"/>
<path d="M0 0 C5.28 0 10.56 0 16 0 C17.24694854 17.95605903 9.13916059 31.80517517 -1 46 C11.87 46.495 11.87 46.495 25 47 C25 51.29 25 55.58 25 60 C11.14 60 -2.72 60 -17 60 C-17 46 -17 46 -13.875 41.875 C-13.23820313 41.26914063 -12.60140625 40.66328125 -11.9453125 40.0390625 C-1.94264412 29.55433781 -0.68297564 13.65951273 0 0 Z " fill="#F0FCFB" transform="translate(156,210)"/>
<path d="M0 0 C5.28 0 10.56 0 16 0 C16.226875 2.51625 16.45375 5.0325 16.6875 7.625 C18.29501336 22.32469081 23.43404707 35.43404707 34 46 C34 50.62 34 55.24 34 60 C20.14 60 6.28 60 -8 60 C-8 55.71 -8 51.42 -8 47 C0.91 47 9.82 47 19 47 C17.845 45.515 16.69 44.03 15.5 42.5 C6.19174304 29.62054677 0 16.14364295 0 0 Z " fill="#F5FCFC" transform="translate(227,210)"/>
<path d="M0 0 C12.87 0 25.74 0 39 0 C39 3.63 39 7.26 39 11 C30.42 11.33 21.84 11.66 13 12 C13 12.99 13 13.98 13 15 C12.30232558 20.69767442 12.30232558 20.69767442 10 23 C9.01 22.67 8.02 22.34 7 22 C5.82244087 19.05610218 5.96651304 18.10046087 7 15 C5.35 14.67 3.7 14.34 2 14 C2 13.01 2 12.02 2 11 C1.34 11 0.68 11 0 11 C0 7.37 0 3.74 0 0 Z " fill="#F9FDFD" transform="translate(141,131)"/>
<path d="M0 0 C13.2 0 26.4 0 40 0 C40 4.29 40 8.58 40 13 C39.01 13 38.02 13 37 13 C34.78831775 15.94236782 34.78831775 15.94236782 33 19 C32.01 18.67 31.02 18.34 30 18 C30.33 17.34 30.66 16.68 31 16 C30.34 16 29.68 16 29 16 C28.01 18.475 28.01 18.475 27 21 C26.01 20.67 25.02 20.34 24 20 C24.7504724 16.09754354 26.08303419 13.83393163 28 10 C18.76 10.33 9.52 10.66 0 11 C0 7.37 0 3.74 0 0 Z " fill="#F9FDFD" transform="translate(220,131)"/>
<path d="M0 0 C1.70588657 0.00112997 3.41177508 0.00049169 5.11766052 -0.00177002 C9.7224663 -0.00291225 14.32685075 0.02051708 18.93155909 0.04852581 C23.75349416 0.07362173 28.57544012 0.0758879 33.39743042 0.08062744 C42.51680158 0.09303322 51.6359797 0.12582225 60.75526607 0.1660254 C71.14221379 0.21081791 81.52917099 0.23274893 91.91619134 0.25280714 C113.27219731 0.29455709 134.62802983 0.36486233 155.98388672 0.45410156 C155.98388672 0.78410156 155.98388672 1.11410156 155.98388672 1.45410156 C154.66610245 1.46044947 154.66610245 1.46044947 153.32169628 1.46692562 C131.96524323 1.57013935 110.6088237 1.67876312 89.25242901 1.79344082 C78.92472663 1.84876655 68.59702079 1.9022475 58.26928711 1.95141602 C49.26976573 1.9942658 40.27026973 2.04054582 31.27078754 2.09098011 C26.50372636 2.11757463 21.7366702 2.14242758 16.9695797 2.16317558 C12.48564155 2.18274534 8.00175166 2.20689019 3.5178566 2.23459244 C1.8694795 2.24396107 0.22109181 2.25163703 -1.42730141 2.25752068 C-3.67276356 2.26578504 -5.91810869 2.28006265 -8.16352844 2.29588318 C-9.42177587 2.30233573 -10.68002329 2.30878828 -11.97639942 2.31543636 C-15.06149124 2.31774571 -15.06149124 2.31774571 -18.01611328 3.45410156 C-18.34611328 4.44410156 -18.67611328 5.43410156 -19.01611328 6.45410156 C-21.32611328 6.12410156 -23.63611328 5.79410156 -26.01611328 5.45410156 C-26.67611328 6.77410156 -27.33611328 8.09410156 -28.01611328 9.45410156 C-28.67611328 9.45410156 -29.33611328 9.45410156 -30.01611328 9.45410156 C-30.34611328 10.77410156 -30.67611328 12.09410156 -31.01611328 13.45410156 C-32.66611328 13.78410156 -34.31611328 14.11410156 -36.01611328 14.45410156 C-32.9340105 7.57864151 -27.01449725 3.8943942 -20.1468544 1.26966095 C-13.56939827 -0.44376916 -6.74935451 -0.06289604 0 0 Z " fill="#219872" transform="translate(130.01611328125,87.5458984375)"/>
<path d="M0 0 C0.66 1.32 1.32 2.64 2 4 C1.01 4 0.02 4 -1 4 C-1 5.32 -1 6.64 -1 8 C-0.34 8 0.32 8 1 8 C-0.00193437 11.79303725 -0.81024227 14.71536341 -3 18 C-3.31376847 21.08057232 -3.31376847 21.08057232 -3.2784729 24.6627655 C-3.2842653 25.34319847 -3.2900577 26.02363144 -3.29602563 26.72468358 C-3.31305923 29.00945592 -3.31590497 31.29402667 -3.31884766 33.57885742 C-3.32814353 35.21475217 -3.33831169 36.85064216 -3.34928894 38.48652649 C-3.3766415 42.93247793 -3.39175388 47.3783976 -3.40471697 51.82441115 C-3.42032456 56.46894088 -3.4471223 61.11340548 -3.4727478 65.75788879 C-3.51957768 74.55509072 -3.55630139 83.35230484 -3.58942068 92.1495679 C-3.62761236 102.1639974 -3.67703023 112.17836156 -3.72740483 122.19273603 C-3.83078727 142.79510914 -3.92002712 163.3975236 -4 184 C-4.33 184 -4.66 184 -5 184 C-5.09353405 161.61634941 -5.16402368 139.23273116 -5.20724869 116.84892464 C-5.22785427 106.45520613 -5.25593656 96.06160921 -5.30175781 85.66796875 C-5.34168692 76.60650705 -5.36744738 67.54513343 -5.37635398 58.48358619 C-5.38155844 53.68767825 -5.393749 48.89202224 -5.42292023 44.09619522 C-5.45018535 39.57687902 -5.45842267 35.05791718 -5.45243073 30.53852654 C-5.45352602 28.8849984 -5.46141363 27.23145772 -5.4768219 25.57800102 C-5.55463361 16.79291234 -5.46801283 8.87844221 -1 1 C-0.67 0.67 -0.34 0.34 0 0 Z " fill="#269874" transform="translate(93,102)"/>
<path d="M0 0 C0.33 0 0.66 0 1 0 C1.20050451 22.63484237 1.38382988 45.26976546 1.54658794 67.90491199 C1.62255832 78.41431271 1.70419392 88.9236129 1.79907227 99.43286133 C1.88173399 108.59050997 1.95386223 117.74816994 2.01323253 126.90600032 C2.04505247 131.75701323 2.08222058 136.60785457 2.13199425 141.45871925 C2.17864471 146.02139931 2.21124585 150.58396082 2.2329216 155.14682579 C2.2433945 156.82427929 2.25906679 158.50170934 2.28024101 160.17906189 C2.30831942 162.46405005 2.31792794 164.74838556 2.32279968 167.03352356 C2.33800927 168.95407924 2.33800927 168.95407924 2.35352612 170.91343403 C2 174 2 174 0.55404377 175.79868603 C0.04120933 176.19511964 -0.47162512 176.59155325 -1 177 C-2.17574711 179.09989652 -2.17574711 179.09989652 -3 181 C-3.66 181 -4.32 181 -5 181 C-3 175 -3 175 -1.94709206 172.23515129 C-0.89171393 168.63010794 -0.73826215 165.61680885 -0.7215271 161.86257935 C-0.7157347 161.16733245 -0.7099423 160.47208555 -0.70397437 159.75577056 C-0.68704315 157.43885788 -0.68410386 155.12214521 -0.68115234 152.80517578 C-0.67184941 151.13928238 -0.66168019 149.47339363 -0.65071106 147.80751038 C-0.62343821 143.29355667 -0.60826969 138.77963413 -0.59528303 134.26561975 C-0.57964063 129.54503466 -0.55285393 124.82451308 -0.5272522 120.10397339 C-0.48048408 111.16874857 -0.44373043 102.23351177 -0.41057932 93.29822719 C-0.37234406 83.124119 -0.32293756 72.95007465 -0.27259517 62.77602029 C-0.16930456 41.85072734 -0.0800348 20.92539397 0 0 Z " fill="#ADEFDB" transform="translate(312,117)"/>
<path d="M0 0 C-0.33 0.99 -0.66 1.98 -1 3 C-58.09 3 -115.18 3 -174 3 C-174 2.67 -174 2.34 -174 2 C-173.13693835 1.99576806 -172.27387671 1.99153612 -171.38466167 1.98717594 C-150.40374214 1.88396072 -129.42285672 1.77533673 -108.44199657 1.66066074 C-98.29589688 1.60533579 -88.14979366 1.55185497 -78.00366211 1.50268555 C-69.16235349 1.45983481 -60.32107069 1.41355454 -51.47980195 1.36312145 C-46.79657796 1.33652771 -42.11335905 1.31167478 -37.43010521 1.29092598 C-33.024961 1.27135521 -28.6198659 1.24721006 -24.21476555 1.21950912 C-22.59541464 1.21014103 -20.97605295 1.20246488 -19.35668564 1.19658089 C-17.15063411 1.18831561 -14.94470162 1.17403775 -12.73869324 1.15821838 C-10.88450665 1.14853956 -10.88450665 1.14853956 -8.99286175 1.1386652 C-5.78709189 0.99013555 -3.21508654 0 0 0 Z " fill="#ABF0DB" transform="translate(292,310)"/>
<path d="M0 0 C1.9375 0.6875 1.9375 0.6875 4 2 C4.33 3.65 4.66 5.3 5 7 C-3.91 7 -12.82 7 -22 7 C-21.01 7.33 -20.02 7.66 -19 8 C-19 8.99 -19 9.98 -19 11 C-19.99 11 -20.98 11 -22 11 C-21.67 12.32 -21.34 13.64 -21 15 C-9.78 15.66 1.44 16.32 13 17 C13 17.33 13 17.66 13 18 C0.79 18 -11.42 18 -24 18 C-24 13.71 -24 9.42 -24 5 C-15.09 5 -6.18 5 3 5 C2.01 3.35 1.02 1.7 0 0 Z " fill="#D9FDF8" transform="translate(243,252)"/>
<path d="M0 0 C13.86 0 27.72 0 42 0 C42 4.62 42 9.24 42 14 C41.67 14 41.34 14 41 14 C41 9.71 41 5.42 41 1 C27.8 1 14.6 1 1 1 C1 4.63 1 8.26 1 12 C1.66 11.67 2.32 11.34 3 11 C4.9593604 10.91489795 6.92162794 10.89282344 8.8828125 10.90234375 C10.04941406 10.90556641 11.21601563 10.90878906 12.41796875 10.91210938 C13.64128906 10.92048828 14.86460937 10.92886719 16.125 10.9375 C17.35605469 10.94201172 18.58710938 10.94652344 19.85546875 10.95117188 C22.90369392 10.9629867 25.95182314 10.97945972 29 11 C28.28525827 15.3842405 27.08287125 17.73028807 24 21 C23.34 21 22.68 21 22 21 C23.20381448 18.50638429 24.45428722 16.31856917 26 14 C13.13 13.505 13.13 13.505 0 13 C0 8.71 0 4.42 0 0 Z " fill="#CFFCF4" transform="translate(219,130)"/>
<path d="M0 0 C13.86 0 27.72 0 42 0 C42 4.29 42 8.58 42 13 C33.09 13 24.18 13 15 13 C15 12.67 15 12.34 15 12 C23.58 12 32.16 12 41 12 C41 8.37 41 4.74 41 1 C28.13 1 15.26 1 2 1 C2 4.63 2 8.26 2 12 C2.66 12 3.32 12 4 12 C4.33 13.98 4.66 15.96 5 18 C3.35 16.68 1.7 15.36 0 14 C0 9.38 0 4.76 0 0 Z " fill="#CCFDF4" transform="translate(139,130)"/>
<path d="M0 0 C5.28 0 10.56 0 16 0 C16.19916016 1.73636719 16.19916016 1.73636719 16.40234375 3.5078125 C16.58065082 5.04688408 16.75904062 6.58594607 16.9375 8.125 C17.02451172 8.88554687 17.11152344 9.64609375 17.20117188 10.4296875 C17.6915487 14.64329577 18.25902978 18.821195 19 23 C18.01 22.67 17.02 22.34 16 22 C15.86722656 20.80761719 15.73445312 19.61523438 15.59765625 18.38671875 C15.41944017 16.82029322 15.24104544 15.25388802 15.0625 13.6875 C14.97548828 12.90181641 14.88847656 12.11613281 14.79882812 11.30664062 C14.71181641 10.54931641 14.62480469 9.79199219 14.53515625 9.01171875 C14.456604 8.31522217 14.37805176 7.61872559 14.29711914 6.90112305 C14.02003217 4.78351766 14.02003217 4.78351766 13 2 C9.37 2 5.74 2 2 2 C1.34 3.32 0.68 4.64 0 6 C0 4.02 0 2.04 0 0 Z " fill="#D0F9F0" transform="translate(227,210)"/>
<path d="M0 0 C1.7074998 1.28062485 3.37373596 2.61767557 5 4 C5 4.66 5 5.32 5 6 C-3.91 6 -12.82 6 -22 6 C-21.67 5.34 -21.34 4.68 -21 4 C-10.605 3.505 -10.605 3.505 0 3 C0 2.01 0 1.02 0 0 Z " fill="#269372" transform="translate(241,251)"/>
<path d="M0 0 C8.91 0 17.82 0 27 0 C26.67 0.66 26.34 1.32 26 2 C18.74 2 11.48 2 4 2 C3.67 2.99 3.34 3.98 3 5 C2.01 3.35 1.02 1.7 0 0 Z " fill="#259271" transform="translate(154,143)"/>
<path d="M0 0 C0.33 0 0.66 0 1 0 C1.06058594 1.02480469 1.12117187 2.04960937 1.18359375 3.10546875 C1.26805026 4.46615695 1.35269567 5.82683343 1.4375 7.1875 C1.47681641 7.86103516 1.51613281 8.53457031 1.55664062 9.22851562 C1.7921922 12.94298273 2.26579099 16.32895494 3 20 C7.29 20 11.58 20 16 20 C16 18.35 16 16.7 16 15 C16.33 15 16.66 15 17 15 C17 16.98 17 18.96 17 21 C11.39 21 5.78 21 0 21 C-0.19378567 17.68775576 -0.38032505 14.37538512 -0.5625 11.0625 C-0.61857422 10.11697266 -0.67464844 9.17144531 -0.73242188 8.19726562 C-0.78076172 7.29814453 -0.82910156 6.39902344 -0.87890625 5.47265625 C-0.9260376 4.64000244 -0.97316895 3.80734863 -1.02172852 2.94946289 C-1 1 -1 1 0 0 Z " fill="#B5EDDF" transform="translate(156,169)"/>
<path d="M0 0 C0.66 0.33 1.32 0.66 2 1 C1.030625 1.86625 0.06125 2.7325 -0.9375 3.625 C-5.53922798 8.85472851 -4.98157241 15.35685243 -5 22 C-5.99 21.67 -6.98 21.34 -8 21 C-8.53440151 10.80678605 -8.53440151 10.80678605 -5 6 C-4.30420546 3.80869466 -4.30420546 3.80869466 -4 2 C-2.68 2 -1.36 2 0 2 C0 1.34 0 0.68 0 0 Z " fill="#2C9C78" transform="translate(144,248)"/>
<path d="M0 0 C1.21881834 3.98261767 0.46199417 6.10134888 -1 10 C-1.98914355 13.14727493 -2.09266824 13.72199529 -1 17 C-1.66 17 -2.32 17 -3 17 C-3 17.66 -3 18.32 -3 19 C-5.49064888 19.68707555 -7.37886292 20 -10 20 C-9.52949219 19.2265625 -9.05898437 18.453125 -8.57421875 17.65625 C-5.12179687 11.88076993 -2.09246292 6.4004748 0 0 Z " fill="#17946A" transform="translate(169,229)"/>
<path d="M0 0 C4.875 1.75 4.875 1.75 6 4 C6.99 5.485 6.99 5.485 8 7 C8.6328125 9.3046875 8.6328125 9.3046875 9.125 11.875 C9.29257812 12.71804687 9.46015625 13.56109375 9.6328125 14.4296875 C9.99878845 16.99151915 10.06482904 19.41609989 10 22 C8.49904394 19.12371857 7.31284964 16.22833839 6.1875 13.1875 C4.3583358 8.52830816 2.07778025 4.93271921 -1 1 C-0.67 0.67 -0.34 0.34 0 0 Z " fill="#CDFAEE" transform="translate(303,95)"/>
<path d="M0 0 C0.66 1.32 1.32 2.64 2 4 C1.01 4 0.02 4 -1 4 C-1 5.32 -1 6.64 -1 8 C-0.34 8 0.32 8 1 8 C-0.74107143 15.09821429 -0.74107143 15.09821429 -4 18 C-4.53449652 10.75460274 -3.71607548 6.27087737 0 0 Z " fill="#16986D" transform="translate(93,102)"/>
<path d="M0 0 C1.9375 0.6875 1.9375 0.6875 4 2 C4.75 4.625 4.75 4.625 5 7 C6.65 7.33 8.3 7.66 10 8 C11.26582219 11.86723631 11.1118765 15.73151262 11.0625 19.75 C11.05798828 20.44738281 11.05347656 21.14476562 11.04882812 21.86328125 C11.0371002 23.57555803 11.01916653 25.28779033 11 27 C10.67 27 10.34 27 10 27 C9.99742187 26.07058594 9.99484375 25.14117187 9.9921875 24.18359375 C9.74965002 14.79001019 9.74965002 14.79001019 4.5 7.46484375 C2.30596401 5.32223048 1.21968171 2.77816391 0 0 Z " fill="#2C9C78" transform="translate(251,243)"/>
<path d="M0 0 C11.88 0 23.76 0 36 0 C36.495 1.485 36.495 1.485 37 3 C35.22302734 2.76990234 35.22302734 2.76990234 33.41015625 2.53515625 C26.77060931 1.79742881 20.11070013 1.6457175 13.4375 1.4375 C11.49520508 1.37272461 11.49520508 1.37272461 9.51367188 1.30664062 C6.34253616 1.20132615 3.17133207 1.09919383 0 1 C0 0.67 0 0.34 0 0 Z " fill="#D1FDF3" transform="translate(253,86)"/>
<path d="M0 0 C0.33 0 0.66 0 1 0 C1.00257813 0.92941406 1.00515625 1.85882813 1.0078125 2.81640625 C1.08882554 11.25054637 1.08882554 11.25054637 5.0625 18.375 C6.5165625 19.674375 6.5165625 19.674375 8 21 C4.98968256 21.93423645 4.13349732 22.04449911 1 21 C0.07907719 16.34462644 -0.12205997 11.85314567 -0.0625 7.125 C-0.05798828 6.43664062 -0.05347656 5.74828125 -0.04882812 5.0390625 C-0.03716336 3.35933665 -0.01923271 1.67965625 0 0 Z " fill="#2A9D78" transform="translate(138,130)"/>
<path d="M0 0 C1.2065625 0.0309375 1.2065625 0.0309375 2.4375 0.0625 C0.880654 4.07553508 -0.87388857 7.9717928 -2.6875 11.875 C-3.49574219 13.61716797 -3.49574219 13.61716797 -4.3203125 15.39453125 C-4.73023438 16.27496094 -5.14015625 17.15539062 -5.5625 18.0625 C-6.69066237 14.67801288 -6.49081662 14.32764011 -5.125 11.25 C-3.67816625 7.7016566 -3.37423473 4.92193795 -3.5625 1.0625 C-2.5625 0.0625 -2.5625 0.0625 0 0 Z " fill="#1E966E" transform="translate(236.5625,151.9375)"/>
<path d="M0 0 C0.33 0.66 0.66 1.32 1 2 C3.02463255 2.65213292 3.02463255 2.65213292 5 3 C3.6071787 5.7856426 1.69573602 6.52376361 -1 8 C-1.99 8.33 -2.98 8.66 -4 9 C-4.66 8.34 -5.32 7.68 -6 7 C-4.02 4.69 -2.04 2.38 0 0 Z " fill="#E4F9F5" transform="translate(146,248)"/>
<path d="M0 0 C0.33 0 0.66 0 1 0 C1.11593506 0.55461914 1.23187012 1.10923828 1.35131836 1.68066406 C1.87924434 4.20394445 2.40836027 6.72697388 2.9375 9.25 C3.11990234 10.12269531 3.30230469 10.99539062 3.49023438 11.89453125 C3.66748047 12.73886719 3.84472656 13.58320313 4.02734375 14.453125 C4.18968506 15.22817383 4.35202637 16.00322266 4.51928711 16.80175781 C4.97361933 18.87936437 5.4726508 20.93984981 6 23 C2.47538798 20.65025865 2.22674539 19.12608655 1.33984375 15.109375 C0.90057552 12.38288252 0.86228513 9.75429748 1 7 C0.34 7 -0.32 7 -1 7 C-1.33 5.68 -1.66 4.36 -2 3 C-1.34 3 -0.68 3 0 3 C0 2.01 0 1.02 0 0 Z " fill="#269974" transform="translate(226,211)"/>
<path d="M0 0 C0.33 0 0.66 0 1 0 C1.32712342 6.13053511 1.39366878 10.62669111 -2 16 C-2.33 16 -2.66 16 -3 16 C-3 9.69001227 -2.63367391 5.70629347 0 0 Z " fill="#11956A" transform="translate(310,280)"/>
<path d="M0 0 C0.33 0 0.66 0 1 0 C1.24954005 1.43410368 1.47392642 2.87260072 1.6875 4.3125 C1.81511719 5.11300781 1.94273437 5.91351563 2.07421875 6.73828125 C2 9 2 9 0.59375 10.65625 C0.0678125 11.0996875 -0.458125 11.543125 -1 12 C-2.17574711 14.09989652 -2.17574711 14.09989652 -3 16 C-3.66 16 -4.32 16 -5 16 C-4.5978125 14.824375 -4.5978125 14.824375 -4.1875 13.625 C-2.70766479 9.10760831 -1.35097726 4.55729662 0 0 Z " fill="#BFF6E6" transform="translate(312,282)"/>
<path d="M0 0 C8.91 0 17.82 0 27 0 C26.34 1.32 25.68 2.64 25 4 C24.34 3.34 23.68 2.68 23 2 C20.57753405 1.62904292 20.57753405 1.62904292 17.7734375 1.5859375 C16.2265625 1.52792969 16.2265625 1.52792969 14.6484375 1.46875 C13.02808594 1.42234375 13.02808594 1.42234375 11.375 1.375 C10.28703125 1.33632812 9.1990625 1.29765625 8.078125 1.2578125 C5.38558835 1.16333753 2.69306243 1.07777569 0 1 C0 0.67 0 0.34 0 0 Z " fill="#359579" transform="translate(219,143)"/>
<path d="M0 0 C0.99 0 1.98 0 3 0 C3 4.62 3 9.24 3 14 C2.67 14 2.34 14 2 14 C1.67 11.69 1.34 9.38 1 7 C-0.32 7.33 -1.64 7.66 -3 8 C-3 7.34 -3 6.68 -3 6 C-2.01 5.67 -1.02 5.34 0 5 C-0.33 4.34 -0.66 3.68 -1 3 C-0.67 2.01 -0.34 1.02 0 0 Z " fill="#13936A" transform="translate(153,210)"/>
<path d="M0 0 C1.68407508 0.47154102 3.36752552 0.94549014 5.046875 1.43359375 C6.81928388 1.94759233 8.59689099 2.44358083 10.375 2.9375 C11.24125 3.288125 12.1075 3.63875 13 4 C13.33 4.99 13.66 5.98 14 7 C8.39958947 6.57996921 4.411509 4.31423011 0 1 C0 0.67 0 0.34 0 0 Z " fill="#279C77" transform="translate(99,304)"/>
<path d="M0 0 C1.32 0.33 2.64 0.66 4 1 C4.33 2.32 4.66 3.64 5 5 C5.99 4.34 6.98 3.68 8 3 C7.25 8.75 7.25 8.75 5 11 C3.35 7.37 1.7 3.74 0 0 Z " fill="#DCFAF3" transform="translate(148,155)"/>
<path d="M0 0 C0.99 0 1.98 0 3 0 C1.96232949 6.06732052 0.66038099 11.4373852 -2 17 C-3.08740918 13.76657799 -2.94175931 12.15817088 -1.5625 9.0625 C-0.25856481 5.8915667 0.32583722 3.47559698 0 0 Z " fill="#D0FCF3" transform="translate(168,222)"/>
<path d="M0 0 C0.66 0.33 1.32 0.66 2 1 C1.20928784 2.75043149 0.41739082 4.50032778 -0.375 6.25 C-0.81585938 7.22453125 -1.25671875 8.1990625 -1.7109375 9.203125 C-2.76447209 11.48897582 -3.87438469 13.74876939 -5 16 C-5 12.7 -5 9.4 -5 6 C-4.34 6 -3.68 6 -3 6 C-2.01 4.02 -1.02 2.04 0 0 Z " fill="#DCFAF4" transform="translate(250,154)"/>
<path d="M0 0 C2.48046875 1.546875 2.48046875 1.546875 5 4 C5.48828125 7.453125 5.48828125 7.453125 5.3125 11.25 C5.26738281 12.51328125 5.22226562 13.7765625 5.17578125 15.078125 C5.11777344 16.04234375 5.05976563 17.0065625 5 18 C4.67 18 4.34 18 4 18 C4 14.7 4 11.4 4 8 C3.34 7.67 2.68 7.34 2 7 C2.33 6.01 2.66 5.02 3 4 C2.01 3.67 1.02 3.34 0 3 C0 2.01 0 1.02 0 0 Z " fill="#CAF9EE" transform="translate(256,252)"/>
<path d="M0 0 C2.475 0.495 2.475 0.495 5 1 C4.67 3.64 4.34 6.28 4 9 C0 4.5 0 4.5 0 0 Z " fill="#E6FAF7" transform="translate(144,145)"/>
<path d="M0 0 C2.40672398 2.40672398 2.79132175 4.11378549 3.6875 7.375 C4.09548828 8.80972656 4.09548828 8.80972656 4.51171875 10.2734375 C4.9947433 12.97064661 4.9004538 14.44972144 4 17 C3.67 16.01 3.34 15.02 3 14 C2.34 13.67 1.68 13.34 1 13 C1.020625 11.96875 1.04125 10.9375 1.0625 9.875 C1.00723339 6.44847031 0.65449285 3.35427586 0 0 Z " fill="#C1F6E9" transform="translate(167,165)"/>
<path d="M0 0 C0.33 0 0.66 0 1 0 C0.26086957 8.86956522 0.26086957 8.86956522 -3 12 C-3.66 12 -4.32 12 -5 12 C-3.68938409 7.76570244 -2.05643741 3.92592596 0 0 Z " fill="#CDF6EC" transform="translate(237,155)"/>
<path d="M0 0 C3.44216672 2.6598561 3.99504674 5.90288286 5 10 C4.34 10 3.68 10 3 10 C2.67 8.35 2.34 6.7 2 5 C0.02 5.99 0.02 5.99 -2 7 C-1.42415568 4.61435923 -0.77772405 2.33317216 0 0 Z " fill="#1F9871" transform="translate(148,156)"/>
<path d="M0 0 C3 3 6 6 9 9 C7.3125 9.8125 7.3125 9.8125 5 10 C2.25 7.875 2.25 7.875 0 5 C-0.3125 2.1875 -0.3125 2.1875 0 0 Z " fill="#C5F8EB" transform="translate(93,298)"/>
<path d="M0 0 C0.66 0.33 1.32 0.66 2 1 C0.34832443 4.5786304 -1.78286492 7.74820188 -4 11 C-4.65234375 9.234375 -4.65234375 9.234375 -5 7 C-4.00390625 5.078125 -4.00390625 5.078125 -2.5625 3.25 C-2.08941406 2.63640625 -1.61632812 2.0228125 -1.12890625 1.390625 C-0.75636719 0.93171875 -0.38382812 0.4728125 0 0 Z " fill="#D6F9F2" transform="translate(257,143)"/>
<path d="M0 0 C1.11529858 4.46119431 0.67626679 5.85344531 -1 10 C-1.99 11.485 -1.99 11.485 -3 13 C-3.66 12.67 -4.32 12.34 -5 12 C-3.35 8.04 -1.7 4.08 0 0 Z " fill="#2B9D78" transform="translate(169,229)"/>
<path d="M0 0 C0.99 0.33 1.98 0.66 3 1 C3 1.66 3 2.32 3 3 C3.99 3 4.98 3 6 3 C5.67 3.99 5.34 4.98 5 6 C4.67 6 4.34 6 4 6 C3.67 7.65 3.34 9.3 3 11 C2.67 11 2.34 11 2 11 C1.34 7.37 0.68 3.74 0 0 Z " fill="#1F9771" transform="translate(170,173)"/>
<path d="M0 0 C0.66 0.66 1.32 1.32 2 2 C1.625 4.125 1.625 4.125 1 6 C-0.32 5.67 -1.64 5.34 -3 5 C-2.625 3.0625 -2.625 3.0625 -2 1 C-1.34 0.67 -0.68 0.34 0 0 Z " fill="#0F976B" transform="translate(149,236)"/>
<path d="M0 0 C0.66 0 1.32 0 2 0 C2.83848804 1.45537568 3.67063934 2.91440373 4.5 4.375 C5.19609375 5.59316406 5.19609375 5.59316406 5.90625 6.8359375 C7 9 7 9 7 11 C4 10 4 10 2.83203125 8.22265625 C2.49558594 7.50980469 2.15914062 6.79695312 1.8125 6.0625 C1.46832031 5.35222656 1.12414062 4.64195312 0.76953125 3.91015625 C0 2 0 2 0 0 Z " fill="#279772" transform="translate(231,235)"/>
<path d="M0 0 C3.0916909 2.52956528 3.90931332 5.22454612 5 9 C3.0625 8.4375 3.0625 8.4375 1 7 C0.25 3.375 0.25 3.375 0 0 Z " fill="#D6F9F1" transform="translate(162,156)"/>
<path d="M0 0 C3.82097239 0.53069061 6.06171403 1.49701566 9 4 C8.01 4.66 7.02 5.32 6 6 C3.97945196 4.35830472 1.97956942 2.69088222 0 1 C0 0.67 0 0.34 0 0 Z " fill="#15976D" transform="translate(287,89)"/>
<path d="M0 0 C1.32 0.66 2.64 1.32 4 2 C2.35 3.98 0.7 5.96 -1 8 C-2.2077558 4.37673261 -1.54311128 3.35853631 0 0 Z " fill="#209A72" transform="translate(302,297)"/>
<path d="M0 0 C2.475 0.495 2.475 0.495 5 1 C5.33 2.32 5.66 3.64 6 5 C5.01 5 4.02 5 3 5 C1.3125 2.5 1.3125 2.5 0 0 Z " fill="#1D9970" transform="translate(94,298)"/>
<path d="M0 0 C0.99 0 1.98 0 3 0 C3.66 1.32 4.32 2.64 5 4 C4.01 4 3.02 4 2 4 C1.67 4.99 1.34 5.98 1 7 C0.67 7 0.34 7 0 7 C0 4.69 0 2.38 0 0 Z " fill="#159369" transform="translate(236,246)"/>
<path d="M0 0 C1.65 0 3.3 0 5 0 C2.25 5.875 2.25 5.875 0 7 C0 4.69 0 2.38 0 0 Z " fill="#0F976A" transform="translate(297,300)"/>
<path d="M0 0 C0.99 0.33 1.98 0.66 3 1 C0.03 4.96 0.03 4.96 -3 9 C-3.33 8.01 -3.66 7.02 -4 6 C-2.0625 2.8125 -2.0625 2.8125 0 0 Z " fill="#D1F5ED" transform="translate(157,248)"/>
<path d="M0 0 C-0.33 0.99 -0.66 1.98 -1 3 C-3.97 3 -6.94 3 -10 3 C-4 0 -4 0 0 0 Z " fill="#BAF7E5" transform="translate(292,310)"/>
<path d="M0 0 C0.66 0.33 1.32 0.66 2 1 C0.35830472 3.02054804 -1.30911778 5.02043058 -3 7 C-3.33 7 -3.66 7 -4 7 C-4 5.35 -4 3.7 -4 2 C-2.68 2 -1.36 2 0 2 C0 1.34 0 0.68 0 0 Z " fill="#22946E" transform="translate(144,248)"/>
<path d="M0 0 C2.79872437 2.52788007 4.45773019 4.20411134 5 8 C4.01 8.495 4.01 8.495 3 9 C0 3.375 0 3.375 0 0 Z " fill="#D3FAF1" transform="translate(232,232)"/>
<path d="M0 0 C0.99 0.33 1.98 0.66 3 1 C3 3.31 3 5.62 3 8 C2.01 8 1.02 8 0 8 C0 5.36 0 2.72 0 0 Z " fill="#0E9369" transform="translate(173,182)"/>
<path d="M0 0 C4 2 4 2 5.25 5.125 C5.4975 6.07375 5.745 7.0225 6 8 C5.34 8 4.68 8 4 8 C2.68 5.36 1.36 2.72 0 0 Z " fill="#2A9974" transform="translate(161,153)"/>
</svg>
