<svg version="1.1" id="Layer_1" xmlns:x="ns_extend;" xmlns:i="ns_ai;" xmlns:graph="ns_graphs;" xmlns="http://www.w3.org/2000/svg" xmlns:xlink="http://www.w3.org/1999/xlink" x="0px" y="0px" viewBox="0 0 49.8 50" style="enable-background:new 0 0 49.8 50;" xml:space="preserve">
 <style type="text/css">
  .st0{fill:#EF68FF;}
	.st1{fill:#3075FA;}
	.st2{fill:#3D4F77;}
 </style>
 <metadata>
  <sfw xmlns="ns_sfw;">
   <slices>
   </slices>
   <sliceSourceBounds bottomLeftOrigin="true" height="50" width="49.8" x="125.6" y="-225.2">
   </sliceSourceBounds>
  </sfw>
 </metadata>
 <g>
  <g>
   <path class="st0" d="M21.9,23.3H1.4c-0.8,0-1.5-0.7-1.4-1.5C0.8,10.2,10,0.9,21.7,0.1c0.9-0.1,1.6,0.6,1.6,1.5v20.3
			C23.3,22.7,22.6,23.3,21.9,23.3z">
   </path>
   <path class="st1" d="M26.5,21.9V1.4C26.5,0.6,27.2,0,28,0h20.3c0.9,0,1.6,0.7,1.5,1.6C49,13.3,39.7,22.5,28,23.3
			C27.2,23.3,26.5,22.7,26.5,21.9z">
   </path>
   <g>
    <path class="st2" d="M23.3,28.1v20.3c0,0.9-0.7,1.6-1.6,1.5C10,49.2,0.8,39.9,0,28.2c-0.1-0.8,0.6-1.5,1.4-1.5l20.4,0
				C22.6,26.7,23.3,27.3,23.3,28.1z">
    </path>
    <path class="st2" d="M28,26.8c11.6,0.7,21,10,21.8,21.7c0.1,0.9-0.6,1.6-1.5,1.6H28c-0.8,0-1.4-0.6-1.4-1.4V28.2
				C26.5,27.4,27.2,26.7,28,26.8z">
    </path>
   </g>
  </g>
 </g>
</svg>